<?xml version="1.0" encoding="UTF-8"?>
<svg width="234px" height="234px" viewBox="0 0 234 234" version="1.1" xmlns="http://www.w3.org/2000/svg" xmlns:xlink="http://www.w3.org/1999/xlink">
    <!-- Generator: Sketch 46.2 (44496) - http://www.bohemiancoding.com/sketch -->
    <title>Artboard</title>
    <desc>Created with Sketch.</desc>
    <defs></defs>
    <g id="Page-1" stroke="none" stroke-width="1" fill="none" fill-rule="evenodd">
        <g id="Artboard">
            <rect id="Rectangle" fill="#50E3C2" x="0" y="0" width="234" height="234"></rect>
            <path d="M8,66.8201936 L8,16 L22.5168019,16 L22.5168019,23.2600277 L29.7752028,23.2600277 L29.7752028,30.5200553 L37.0336037,30.5200553 L37.0336037,23.2600277 L44.2920046,23.2600277 L44.2920046,16 L58.8088065,16 L58.8088065,66.8201936 L44.2920046,66.8201936 L44.2920046,37.780083 L37.0336037,37.780083 L37.0336037,52.3001383 L29.7752028,52.3001383 L29.7752028,37.780083 L22.5168019,37.780083 L22.5168019,66.8201936 L8,66.8201936 Z M63.0637312,66.8201936 L63.0637312,30.5200553 L70.3221321,30.5200553 L70.3221321,23.2600277 L77.580533,23.2600277 L77.580533,16 L99.3557358,16 L99.3557358,23.2600277 L106.614137,23.2600277 L106.614137,30.5200553 L113.872538,30.5200553 L113.872538,66.8201936 L99.3557358,66.8201936 L99.3557358,52.3001383 L77.580533,52.3001383 L77.580533,66.8201936 L63.0637312,66.8201936 Z M77.580533,45.0401107 L99.3557358,45.0401107 L99.3557358,30.5200553 L92.0973349,30.5200553 L92.0973349,23.2600277 L84.838934,23.2600277 L84.838934,30.5200553 L77.580533,30.5200553 L77.580533,45.0401107 Z M132.644264,66.8201936 L132.644264,23.2600277 L118.127462,23.2600277 L118.127462,16 L168.685979,16 L168.685979,23.2600277 L147.161066,23.2600277 L147.161066,66.8201936 L132.644264,66.8201936 Z M187.707995,66.8201936 L187.707995,23.2600277 L173.191194,23.2600277 L173.191194,16 L223.74971,16 L223.74971,23.2600277 L202.224797,23.2600277 L202.224797,66.8201936 L187.707995,66.8201936 Z M22.7670915,141.910097 L22.7670915,98.3499308 L8.25028969,98.3499308 L8.25028969,91.0899032 L58.8088065,91.0899032 L58.8088065,98.3499308 L37.2838934,98.3499308 L37.2838934,141.910097 L22.7670915,141.910097 Z M63.0637312,141.910097 L63.0637312,91.0899032 L106.614137,91.0899032 L106.614137,98.3499308 L113.872538,98.3499308 L113.872538,120.130014 L99.3557358,120.130014 L99.3557358,127.390041 L106.614137,127.390041 L106.614137,134.650069 L113.872538,134.650069 L113.872538,141.910097 L92.0973349,141.910097 L92.0973349,134.650069 L84.838934,134.650069 L84.838934,127.390041 L77.580533,127.390041 L77.580533,141.910097 L63.0637312,141.910097 Z M77.580533,120.130014 L92.0973349,120.130014 L92.0973349,112.869986 L99.3557358,112.869986 L99.3557358,98.3499308 L77.580533,98.3499308 L77.580533,120.130014 Z M125.385863,141.910097 L125.385863,134.650069 L118.127462,134.650069 L118.127462,98.3499308 L125.385863,98.3499308 L125.385863,91.0899032 L161.677868,91.0899032 L161.677868,98.3499308 L168.936269,98.3499308 L168.936269,134.650069 L161.677868,134.650069 L161.677868,141.910097 L125.385863,141.910097 Z M132.644264,134.650069 L154.419467,134.650069 L154.419467,98.3499308 L132.644264,98.3499308 L132.644264,134.650069 Z M173.191194,141.910097 L173.191194,91.0899032 L187.707995,91.0899032 L187.707995,98.3499308 L194.966396,98.3499308 L194.966396,105.609959 L202.224797,105.609959 L202.224797,112.869986 L209.483198,112.869986 L209.483198,91.0899032 L224,91.0899032 L224,141.910097 L209.483198,141.910097 L209.483198,127.390041 L202.224797,127.390041 L202.224797,120.130014 L194.966396,120.130014 L194.966396,112.869986 L187.707995,112.869986 L187.707995,141.910097 L173.191194,141.910097 Z M84.838934,217 L84.838934,209.739972 L77.580533,209.739972 L77.580533,202.479945 L70.3221321,202.479945 L70.3221321,195.219917 L63.0637312,195.219917 L63.0637312,166.179806 L77.580533,166.179806 L77.580533,187.959889 L84.838934,187.959889 L84.838934,195.219917 L92.0973349,195.219917 L92.0973349,187.959889 L99.3557358,187.959889 L99.3557358,166.179806 L113.872538,166.179806 L113.872538,195.219917 L106.614137,195.219917 L106.614137,202.479945 L99.3557358,202.479945 L99.3557358,209.739972 L92.0973349,209.739972 L92.0973349,217 L84.838934,217 Z M118.377752,217 L118.377752,209.739972 L132.894554,209.739972 L132.894554,173.439834 L118.377752,173.439834 L118.377752,166.179806 L168.936269,166.179806 L168.936269,173.439834 L147.411356,173.439834 L147.411356,209.739972 L168.936269,209.739972 L168.936269,217 L118.377752,217 Z M187.707995,217 L187.707995,209.739972 L180.449594,209.739972 L180.449594,202.479945 L173.191194,202.479945 L173.191194,180.699862 L180.449594,180.699862 L180.449594,173.439834 L187.707995,173.439834 L187.707995,166.179806 L224,166.179806 L224,173.439834 L194.966396,173.439834 L194.966396,180.699862 L187.707995,180.699862 L187.707995,202.479945 L194.966396,202.479945 L194.966396,209.739972 L209.483198,209.739972 L209.483198,195.219917 L202.224797,195.219917 L202.224797,187.959889 L224,187.959889 L224,217 L187.707995,217 Z" id="MATT-TRON-VIG" fill="#FFFFFF"></path>
        </g>
    </g>
</svg>