<?xml version="1.0" encoding="UTF-8"?>
<svg width="743px" height="504px" viewBox="0 0 743 504" version="1.1" xmlns="http://www.w3.org/2000/svg" xmlns:xlink="http://www.w3.org/1999/xlink">
    <!-- Generator: Sketch 46.2 (44496) - http://www.bohemiancoding.com/sketch -->
    <title>Vendors</title>
    <desc>Created with Sketch.</desc>
    <defs>
        <rect id="path-1" x="0" y="0.363392785" width="742.656125" height="503.262556" rx="20"></rect>
        <rect id="path-2" x="0" y="39.4658706" width="742.656125" height="464.160078" rx="20"></rect>
        <rect id="path-3" x="0" y="0.516540344" width="742.656125" height="452.98346" rx="20"></rect>
        <rect id="path-5" x="0" y="0" width="113.742979" height="113.742979" rx="20"></rect>
        <rect id="path-6" x="0" y="0" width="113.742979" height="113.742979" rx="20"></rect>
        <rect id="path-7" x="0" y="0" width="113.742979" height="113.742979" rx="20"></rect>
        <rect id="path-8" x="0" y="0" width="113.742979" height="113.742979" rx="20"></rect>
        <rect id="path-9" x="0" y="0" width="113.742979" height="113.742979" rx="20"></rect>
        <rect id="path-10" x="0" y="0" width="113.742979" height="113.742979" rx="20"></rect>
        <rect id="path-11" x="0" y="0" width="113.742979" height="113.742979" rx="20"></rect>
        <rect id="path-12" x="0" y="0" width="113.742979" height="113.742979" rx="20"></rect>
        <rect id="path-13" x="0.00359319044" y="0" width="113.742979" height="113.742979" rx="20"></rect>
        <rect id="path-14" x="0.00359319044" y="0" width="113.742979" height="113.742979" rx="20"></rect>
        <rect id="path-15" x="0" y="0" width="113.742979" height="113.742979" rx="20"></rect>
        <rect id="path-16" x="0" y="0" width="113.742979" height="113.742979" rx="20"></rect>
        <rect id="path-17" x="14.4405358" y="113.203486" width="164.261094" height="355.340327" rx="20"></rect>
        <rect id="path-18" x="646.213976" y="115.266419" width="75.4934293" height="16.0441444" rx="8.02207219"></rect>
    </defs>
    <g id="Page-1" stroke="none" stroke-width="1" fill="none" fill-rule="evenodd">
        <g id="MV" transform="translate(-31.000000, -41.000000)">
            <g id="Vendors" transform="translate(31.000000, 39.000000)">
                <g id="Report">
                    <g id="Chrome" transform="translate(0.000000, 2.050670)">
                        <g id="Rectangle-2">
                            <use fill="#E4EAEF" fill-rule="evenodd" xlink:href="#path-1"></use>
                            <rect stroke="#CEC4EF" stroke-width="5" x="2.5" y="2.86339279" width="737.656125" height="498.262556" rx="20"></rect>
                        </g>
                        <g id="Rectangle-3">
                            <use fill="#F9F9FA" fill-rule="evenodd" xlink:href="#path-2"></use>
                            <rect stroke="#CEC4EF" stroke-width="5" x="2.5" y="41.9658706" width="737.656125" height="459.160078" rx="20"></rect>
                        </g>
                        <rect id="Rectangle-7" fill="#FFFFFF" x="8" y="100" width="180.660004" height="391.224721"></rect>
                        <ellipse id="Oval" fill="#FFFFFF" cx="25.9842114" cy="22.2517347" rx="9.80154237" ry="9.54106828"></ellipse>
                        <ellipse id="Oval-Copy" fill="#FFFFFF" cx="57.349147" cy="22.2517347" rx="9.80154237" ry="9.54106828"></ellipse>
                        <ellipse id="Oval-Copy-2" fill="#FFFFFF" cx="88.7140826" cy="22.2517347" rx="9.80154237" ry="9.54106828"></ellipse>
                    </g>
                    <path d="M221.770415,153.676269 L221.770415,153.676269 L221.770415,153.676269 C225.509613,153.676269 228.540831,156.707487 228.540831,160.446684 L228.540831,160.446684 L228.540831,160.446684 L228.540831,160.446684 C228.540831,164.185882 225.509613,167.2171 221.770415,167.2171 L221.770415,167.2171 L221.770415,167.2171 C218.031218,167.2171 215,164.185882 215,160.446684 L215,160.446684 L215,160.446684 C215,156.707487 218.031218,153.676269 221.770415,153.676269 Z" id="Rectangle-8-Copy-2" fill="#CEC4EF"></path>
                    <rect id="Rectangle-8-Copy-3" fill="#CEC4EF" x="233.93046" y="164.655936" width="143.145218" height="2.40349193" rx="1.20174597"></rect>
                    <g id="Group-3" transform="translate(0.000000, 48.000000)">
                        <mask id="mask-4" fill="white">
                            <use xlink:href="#path-3"></use>
                        </mask>
                        <g id="Mask"></g>
                        <g mask="url(#mask-4)">
                            <g transform="translate(217.000000, 389.000000)">
                                <g id="Group-Copy-6" transform="translate(0.407483, 0.069521)">
                                    <g id="Rectangle-11">
                                        <use fill="#E4EAEF" fill-rule="evenodd" xlink:href="#path-5"></use>
                                        <rect stroke="#BB71FB" stroke-width="3" x="1.5" y="1.5" width="110.742979" height="110.742979" rx="20"></rect>
                                    </g>
                                    <rect id="Rectangle-10" fill="#CEC4EF" x="23.290229" y="18.4155299" width="67.4333374" height="35.4769767" rx="17.7384884"></rect>
                                </g>
                                <g id="Group-Copy-7" transform="translate(261.000000, 0.000000)">
                                    <g id="Rectangle-11">
                                        <use fill="#E4EAEF" fill-rule="evenodd" xlink:href="#path-6"></use>
                                        <rect stroke="#BB71FB" stroke-width="3" x="1.5" y="1.5" width="110.742979" height="110.742979" rx="20"></rect>
                                    </g>
                                    <rect id="Rectangle-10" fill="#CEC4EF" x="23.290229" y="18.4155299" width="67.4333374" height="35.4769767" rx="17.7384884"></rect>
                                </g>
                                <g id="Group-Copy-11" transform="translate(391.000000, 0.000000)">
                                    <g id="Rectangle-11">
                                        <use fill="#E4EAEF" fill-rule="evenodd" xlink:href="#path-7"></use>
                                        <rect stroke="#BB71FB" stroke-width="3" x="1.5" y="1.5" width="110.742979" height="110.742979" rx="20"></rect>
                                    </g>
                                    <rect id="Rectangle-10" fill="#CEC4EF" x="23.290229" y="18.4155299" width="67.4333374" height="35.4769767" rx="17.7384884"></rect>
                                </g>
                                <g id="Group-Copy-8" transform="translate(131.000000, 0.069521)">
                                    <g id="Rectangle-11">
                                        <use fill="#E4EAEF" fill-rule="evenodd" xlink:href="#path-8"></use>
                                        <rect stroke="#BB71FB" stroke-width="3" x="1.5" y="1.5" width="110.742979" height="110.742979" rx="20"></rect>
                                    </g>
                                    <rect id="Rectangle-10" fill="#CEC4EF" x="23.290229" y="18.4155299" width="67.4333374" height="35.4769767" rx="17.7384884"></rect>
                                </g>
                            </g>
                        </g>
                    </g>
                    <g id="Group" transform="translate(217.407483, 182.265533)">
                        <g id="Rectangle-11">
                            <use fill="#E4EAEF" fill-rule="evenodd" xlink:href="#path-9"></use>
                            <rect stroke="#BB71FB" stroke-width="3" x="1.5" y="1.5" width="110.742979" height="110.742979" rx="20"></rect>
                        </g>
                        <path d="M2.03112462,70.5477285 L111.821126,70.5477285" id="Line" stroke="#BB71FB" stroke-width="3" stroke-linecap="square"></path>
                        <rect id="Rectangle-10" fill="#CEC4EF" x="23.290229" y="18.4155299" width="67.4333374" height="35.4769767" rx="17.7384884"></rect>
                        <rect id="Rectangle-9" fill="#D8D8D8" x="40.3516758" y="91.5360163" width="54.9757731" height="6.77041541" rx="3.3852077"></rect>
                        <rect id="Rectangle-8-Copy-2" fill="#F9F9FA" x="18.4155299" y="88.0154003" width="13.5408308" height="13.5408308" rx="6.77041541"></rect>
                    </g>
                    <g id="Group-Copy-3" transform="translate(217.407483, 309.856832)">
                        <g id="Rectangle-11">
                            <use fill="#E4EAEF" fill-rule="evenodd" xlink:href="#path-10"></use>
                            <rect stroke="#BB71FB" stroke-width="3" x="1.5" y="1.5" width="110.742979" height="110.742979" rx="20"></rect>
                        </g>
                        <path d="M2.03112462,70.5477285 L111.821126,70.5477285" id="Line" stroke="#BB71FB" stroke-width="3" stroke-linecap="square"></path>
                        <rect id="Rectangle-10" fill="#CEC4EF" x="23.290229" y="18.4155299" width="67.4333374" height="35.4769767" rx="17.7384884"></rect>
                        <rect id="Rectangle-9" fill="#D8D8D8" x="40.3516758" y="91.5360163" width="54.9757731" height="6.77041541" rx="3.3852077"></rect>
                        <rect id="Rectangle-8-Copy-2" fill="#F9F9FA" x="18.4155299" y="88.0154003" width="13.5408308" height="13.5408308" rx="6.77041541"></rect>
                    </g>
                    <g id="Group-Copy" transform="translate(478.000000, 182.000000)">
                        <g id="Rectangle-11">
                            <use fill="#E4EAEF" fill-rule="evenodd" xlink:href="#path-11"></use>
                            <rect stroke="#BB71FB" stroke-width="3" x="1.5" y="1.5" width="110.742979" height="110.742979" rx="20"></rect>
                        </g>
                        <path d="M2.03112462,71.5 L111.821126,71.5" id="Line" stroke="#BB71FB" stroke-width="3" stroke-linecap="square"></path>
                        <rect id="Rectangle-10" fill="#CEC4EF" x="23.290229" y="18.4155299" width="67.4333374" height="35.4769767" rx="17.7384884"></rect>
                        <rect id="Rectangle-9" fill="#D8D8D8" x="40.3516758" y="91.5360163" width="54.9757731" height="6.77041541" rx="3.3852077"></rect>
                        <rect id="Rectangle-8-Copy-2" fill="#F9F9FA" x="18.4155299" y="88.0154003" width="13.5408308" height="13.5408308" rx="6.77041541"></rect>
                    </g>
                    <g id="Group-Copy-9" transform="translate(608.000000, 182.000000)">
                        <g id="Rectangle-11">
                            <use fill="#E4EAEF" fill-rule="evenodd" xlink:href="#path-12"></use>
                            <rect stroke="#BB71FB" stroke-width="3" x="1.5" y="1.5" width="110.742979" height="110.742979" rx="20"></rect>
                        </g>
                        <path d="M2.03112462,71.5 L111.821126,71.5" id="Line" stroke="#BB71FB" stroke-width="3" stroke-linecap="square"></path>
                        <rect id="Rectangle-10" fill="#CEC4EF" x="23.290229" y="18.4155299" width="67.4333374" height="35.4769767" rx="17.7384884"></rect>
                        <rect id="Rectangle-9" fill="#D8D8D8" x="40.3516758" y="91.5360163" width="54.9757731" height="6.77041541" rx="3.3852077"></rect>
                        <rect id="Rectangle-8-Copy-2" fill="#F9F9FA" x="18.4155299" y="88.0154003" width="13.5408308" height="13.5408308" rx="6.77041541"></rect>
                    </g>
                    <g id="Group-Copy-4" transform="translate(478.000000, 310.000000)">
                        <g id="Rectangle-11">
                            <use fill="#E4EAEF" fill-rule="evenodd" xlink:href="#path-13"></use>
                            <rect stroke="#BB71FB" stroke-width="3" x="1.50359319" y="1.5" width="110.742979" height="110.742979" rx="20"></rect>
                        </g>
                        <path d="M2.03112462,70.5477285 L111.821126,70.5477285" id="Line" stroke="#BB71FB" stroke-width="3" stroke-linecap="square"></path>
                        <rect id="Rectangle-10" fill="#CEC4EF" x="23.290229" y="18.4155299" width="67.4333374" height="35.4769767" rx="17.7384884"></rect>
                        <rect id="Rectangle-9" fill="#D8D8D8" x="40.3516758" y="91.5360163" width="54.9757731" height="6.77041541" rx="3.3852077"></rect>
                        <rect id="Rectangle-8-Copy-2" fill="#F9F9FA" x="18.4155299" y="88.0154003" width="13.5408308" height="13.5408308" rx="6.77041541"></rect>
                    </g>
                    <g id="Group-Copy-10" transform="translate(608.000000, 310.000000)">
                        <g id="Rectangle-11">
                            <use fill="#E4EAEF" fill-rule="evenodd" xlink:href="#path-14"></use>
                            <rect stroke="#BB71FB" stroke-width="3" x="1.50359319" y="1.5" width="110.742979" height="110.742979" rx="20"></rect>
                        </g>
                        <path d="M2.03112462,70.5477285 L111.821126,70.5477285" id="Line" stroke="#BB71FB" stroke-width="3" stroke-linecap="square"></path>
                        <rect id="Rectangle-10" fill="#CEC4EF" x="23.290229" y="18.4155299" width="67.4333374" height="35.4769767" rx="17.7384884"></rect>
                        <rect id="Rectangle-9" fill="#D8D8D8" x="40.3516758" y="91.5360163" width="54.9757731" height="6.77041541" rx="3.3852077"></rect>
                        <rect id="Rectangle-8-Copy-2" fill="#F9F9FA" x="18.4155299" y="88.0154003" width="13.5408308" height="13.5408308" rx="6.77041541"></rect>
                    </g>
                    <g id="Group-Copy-2" transform="translate(348.000000, 182.265533)">
                        <g id="Rectangle-11">
                            <use fill="#E4EAEF" fill-rule="evenodd" xlink:href="#path-15"></use>
                            <rect stroke="#BB71FB" stroke-width="3" x="1.5" y="1.5" width="110.742979" height="110.742979" rx="20"></rect>
                        </g>
                        <path d="M2.03112462,70.5477285 L111.821126,70.5477285" id="Line" stroke="#BB71FB" stroke-width="3" stroke-linecap="square"></path>
                        <rect id="Rectangle-10" fill="#CEC4EF" x="23.290229" y="18.4155299" width="67.4333374" height="35.4769767" rx="17.7384884"></rect>
                        <rect id="Rectangle-9" fill="#D8D8D8" x="40.3516758" y="91.5360163" width="54.9757731" height="6.77041541" rx="3.3852077"></rect>
                        <rect id="Rectangle-8-Copy-2" fill="#F9F9FA" x="18.4155299" y="88.0154003" width="13.5408308" height="13.5408308" rx="6.77041541"></rect>
                    </g>
                    <g id="Group-Copy-5" transform="translate(348.000000, 309.856832)">
                        <g id="Rectangle-11">
                            <use fill="#E4EAEF" fill-rule="evenodd" xlink:href="#path-16"></use>
                            <rect stroke="#BB71FB" stroke-width="3" x="1.5" y="1.5" width="110.742979" height="110.742979" rx="20"></rect>
                        </g>
                        <path d="M2.03112462,70.5477285 L111.821126,70.5477285" id="Line" stroke="#BB71FB" stroke-width="3" stroke-linecap="square"></path>
                        <rect id="Rectangle-10" fill="#CEC4EF" x="23.290229" y="18.4155299" width="67.4333374" height="35.4769767" rx="17.7384884"></rect>
                        <rect id="Rectangle-9" fill="#D8D8D8" x="40.3516758" y="91.5360163" width="54.9757731" height="6.77041541" rx="3.3852077"></rect>
                        <rect id="Rectangle-8-Copy-2" fill="#F9F9FA" x="18.4155299" y="88.0154003" width="13.5408308" height="13.5408308" rx="6.77041541"></rect>
                    </g>
                    <rect id="Rectangle" fill="#E0DAF4" x="5" y="40.7744071" width="733" height="62"></rect>
                    <circle id="Oval-2" fill-opacity="0.5" fill="#9013FE" opacity="0.551234149" cx="33.780539" cy="71.9448121" r="20.6293368"></circle>
                    <rect id="Rectangle-4" fill="#B0A6DB" opacity="0.510812953" x="67.5610781" y="61.6301437" width="104.436018" height="19.0821366" rx="9.54106828"></rect>
                    <rect id="Rectangle-4-Copy" fill="#B0A6DB" opacity="0.510812953" x="702.686785" y="61.6301437" width="19.0821366" height="19.0821366" rx="9.54106828"></rect>
                    <rect id="Rectangle-4-Copy-2" fill="#B0A6DB" opacity="0.510812953" x="664.264646" y="61.6301437" width="19.0821366" height="19.0821366" rx="9.54106828"></rect>
                    <rect id="Rectangle-4-Copy-3" fill="#B0A6DB" opacity="0.510812953" x="625.842506" y="61.6301437" width="19.0821366" height="19.0821366" rx="9.54106828"></rect>
                    <rect id="Rectangle-4-Copy-4" fill="#B0A6DB" opacity="0.510812953" x="494.872694" y="62" width="108.304018" height="19.0821366" rx="9.54106828"></rect>
                    <g id="Rectangle-5" opacity="0.513643569">
                        <use fill-opacity="0.5" fill="#E4EAEF" fill-rule="evenodd" xlink:href="#path-17"></use>
                        <rect stroke="#CEC4EF" stroke-width="3" x="15.9405358" y="114.703486" width="161.261094" height="352.340327" rx="20"></rect>
                    </g>
                    <rect id="Rectangle-6" fill="#CEC4EF" opacity="0.493546196" x="29.6546717" y="129.964822" width="14.1826691" height="14.1826691" rx="7.09133453"></rect>
                    <rect id="Rectangle-6-Copy-2" fill="#CEC4EF" opacity="0.493546196" x="29.6546717" y="157.040827" width="14.1826691" height="14.1826691" rx="7.09133453"></rect>
                    <rect id="Rectangle-6-Copy-4" fill="#CEC4EF" opacity="0.493546196" x="29.6546717" y="184.116831" width="14.1826691" height="14.1826691" rx="7.09133453"></rect>
                    <rect id="Rectangle-6-Copy-6" fill="#CEC4EF" opacity="0.493546196" x="29.6546717" y="211.192836" width="14.1826691" height="14.1826691" rx="7.09133453"></rect>
                    <rect id="Rectangle-6-Copy-8" fill="#CEC4EF" opacity="0.493546196" x="29.6546717" y="235.94804" width="14.1826691" height="14.1826691" rx="7.09133453"></rect>
                    <rect id="Rectangle-6-Copy-10" fill="#CEC4EF" opacity="0.493546196" x="29.6546717" y="263.281911" width="14.1826691" height="14.1826691" rx="7.09133453"></rect>
                    <rect id="Rectangle-6-Copy" fill="#CEC4EF" opacity="0.493546196" x="60.5986769" y="129.964822" width="103.146684" height="14.1826691" rx="7.09133453"></rect>
                    <rect id="Rectangle-6-Copy-3" fill="#CEC4EF" opacity="0.493546196" x="60.5986769" y="157.040827" width="103.146684" height="14.1826691" rx="7.09133453"></rect>
                    <rect id="Rectangle-6-Copy-5" fill="#CEC4EF" opacity="0.493546196" x="60.5986769" y="184.116831" width="103.146684" height="14.1826691" rx="7.09133453"></rect>
                    <rect id="Rectangle-6-Copy-7" fill="#CEC4EF" opacity="0.493546196" x="60.5986769" y="211.192836" width="103.146684" height="14.1826691" rx="7.09133453"></rect>
                    <rect id="Rectangle-6-Copy-9" fill="#CEC4EF" opacity="0.493546196" x="60.5986769" y="235.94804" width="103.146684" height="14.1826691" rx="7.09133453"></rect>
                    <rect id="Rectangle-6-Copy-11" fill="#CEC4EF" opacity="0.493546196" x="60.5986769" y="263.281911" width="103.146684" height="14.1826691" rx="7.09133453"></rect>
                    <rect id="Rectangle-8" fill="#D0D2DF" opacity="0.493546196" x="214.029369" y="115.266419" width="135.895756" height="28.8810715" rx="14.4405358"></rect>
                    <g id="Rectangle-8-Copy" opacity="0.489923007">
                        <use fill="#CEC4EF" fill-rule="evenodd" xlink:href="#path-18"></use>
                        <rect stroke="#9013FE" stroke-width="3" x="647.713976" y="116.766419" width="72.4934293" height="13.0441444" rx="6.52207219"></rect>
                    </g>
                </g>
            </g>
        </g>
    </g>
</svg>