<?xml version="1.0" encoding="UTF-8"?>
<svg width="743px" height="504px" viewBox="0 0 743 504" version="1.1" xmlns="http://www.w3.org/2000/svg" xmlns:xlink="http://www.w3.org/1999/xlink">
    <!-- Generator: Sketch 46.2 (44496) - http://www.bohemiancoding.com/sketch -->
    <title>Report</title>
    <desc>Created with Sketch.</desc>
    <defs>
        <rect id="path-1" x="0" y="0.363392785" width="742.656125" height="503.262556" rx="20"></rect>
        <rect id="path-2" x="0" y="39.4658706" width="742.656125" height="464.160078" rx="20"></rect>
        <rect id="path-3" x="207" y="148" width="515" height="126"></rect>
        <rect id="path-4" x="207" y="284" width="515" height="217"></rect>
        <rect id="path-5" x="14.4405358" y="113.203486" width="164.261094" height="355.340327" rx="20"></rect>
    </defs>
    <g id="Page-1" stroke="none" stroke-width="1" fill="none" fill-rule="evenodd">
        <g id="TXL" transform="translate(-818.000000, -41.000000)">
            <g id="Report" transform="translate(818.000000, 39.000000)">
                <g>
                    <g id="Chrome" transform="translate(0.000000, 2.050670)">
                        <g id="Rectangle-2">
                            <use fill="#E4EAEF" fill-rule="evenodd" xlink:href="#path-1"></use>
                            <rect stroke="#9B9B9B" stroke-width="5" x="2.5" y="2.86339279" width="737.656125" height="498.262556" rx="20"></rect>
                        </g>
                        <g id="Rectangle-3">
                            <use fill="#F9F9FA" fill-rule="evenodd" xlink:href="#path-2"></use>
                            <rect stroke="#9B9B9B" stroke-width="5" x="2.5" y="41.9658706" width="737.656125" height="459.160078" rx="20"></rect>
                        </g>
                        <rect id="Rectangle-7" fill="#FFFFFF" x="8" y="100" width="180.660004" height="391.224721"></rect>
                        <ellipse id="Oval" fill="#FFFFFF" cx="25.9842114" cy="22.2517347" rx="9.80154237" ry="9.54106828"></ellipse>
                        <ellipse id="Oval-Copy" fill="#FFFFFF" cx="57.349147" cy="22.2517347" rx="9.80154237" ry="9.54106828"></ellipse>
                        <ellipse id="Oval-Copy-2" fill="#FFFFFF" cx="88.7140826" cy="22.2517347" rx="9.80154237" ry="9.54106828"></ellipse>
                    </g>
                    <g id="Rectangle-24">
                        <use fill="#FFFFFF" fill-rule="evenodd" xlink:href="#path-3"></use>
                        <rect stroke="#E4EAEF" stroke-width="2" x="208" y="149" width="513" height="124"></rect>
                    </g>
                    <rect id="Rectangle-25" fill="#E4EAEF" x="220" y="161" width="99" height="10" rx="5"></rect>
                    <rect id="Rectangle-25-Copy" fill="#E4EAEF" x="220" y="191" width="60" height="15" rx="7.5"></rect>
                    <rect id="Rectangle-25-Copy-4" fill="#E4EAEF" x="220" y="239" width="60" height="15" rx="4"></rect>
                    <rect id="Rectangle-25-Copy-2" fill="#E4EAEF" x="290" y="191" width="60" height="15" rx="7.5"></rect>
                    <rect id="Rectangle-25-Copy-3" fill="#E4EAEF" x="360" y="191" width="60" height="15" rx="7.5"></rect>
                    <rect id="Rectangle-26" fill="#9B9B9B" x="220" y="227" width="486" height="2" rx="1"></rect>
                    <g id="Rectangle-24-Copy">
                        <use fill="#FFFFFF" fill-rule="evenodd" xlink:href="#path-4"></use>
                        <rect stroke="#E4EAEF" stroke-width="2" x="208" y="285" width="513" height="215"></rect>
                    </g>
                    <rect id="Rectangle-27-Copy-2" fill="#FFFFFF" x="209" y="481" width="511" height="20"></rect>
                    <rect id="Rectangle-25" fill="#E4EAEF" x="220" y="299" width="99" height="10" rx="5"></rect>
                    <rect id="Rectangle-25-Copy-5" fill="#9B9B9B" x="220" y="320" width="165" height="17" rx="8.5"></rect>
                    <rect id="Rectangle-27" fill="#50A4FF" x="220" y="367" width="486" height="73"></rect>
                    <rect id="Rectangle-27-Copy" fill="#FFC050" x="220" y="442" width="486" height="59"></rect>
                    <rect id="Rectangle-28" fill="#FFFFFF" x="232" y="378" width="20" height="20" rx="10"></rect>
                    <rect id="Rectangle-28-Copy-4" fill="#FFFFFF" x="232" y="453" width="20" height="20" rx="10"></rect>
                    <rect id="Rectangle-28-Copy" fill="#FFFFFF" x="260" y="382" width="253" height="12" rx="6"></rect>
                    <rect id="Rectangle-28-Copy-5" fill="#FFFFFF" x="260" y="457" width="253" height="12" rx="6"></rect>
                    <rect id="Rectangle-28-Copy-2" fill="#FFFFFF" x="260" y="405" width="168" height="8" rx="4"></rect>
                    <rect id="Rectangle-28-Copy-6" fill="#FFFFFF" x="260" y="478" width="168" height="8" rx="4"></rect>
                    <rect id="Rectangle-28-Copy-3" fill="#FFFFFF" x="260" y="419" width="8" height="8" rx="4"></rect>
                    <rect id="Rectangle-28-Copy-7" fill="#FFFFFF" x="260" y="492" width="8" height="8" rx="4"></rect>
                    <rect id="Rectangle" fill="#4A4A4A" x="5" y="40.7744071" width="733" height="62"></rect>
                    <circle id="Oval-2" fill="#007AFF" cx="33.780539" cy="71.9448121" r="20.6293368"></circle>
                    <rect id="Rectangle-4" fill="#9B9B9B" opacity="0.510812953" x="67.5610781" y="61.6301437" width="104.436018" height="19.0821366" rx="9.54106828"></rect>
                    <g id="Rectangle-5" opacity="0.513643569">
                        <use fill-opacity="0.5" fill="#E4EAEF" fill-rule="evenodd" xlink:href="#path-5"></use>
                        <rect stroke="#9B9B9B" stroke-width="3" x="15.9405358" y="114.703486" width="161.261094" height="352.340327" rx="20"></rect>
                    </g>
                    <rect id="Rectangle-6" fill="#D8D8D8" opacity="0.493546196" x="30" y="130" width="14.1826691" height="14.1826691" rx="7.09133453"></rect>
                    <rect id="Rectangle-6-Copy-12" fill="#D8D8D8" opacity="0.493546196" x="30" y="291" width="14.1826691" height="14.1826691" rx="7.09133453"></rect>
                    <rect id="Rectangle-6-Copy-2" fill="#D8D8D8" opacity="0.493546196" x="30" y="157" width="14.1826691" height="14.1826691" rx="7.09133453"></rect>
                    <rect id="Rectangle-6-Copy-13" fill="#D8D8D8" opacity="0.493546196" x="30" y="318" width="14.1826691" height="14.1826691" rx="7.09133453"></rect>
                    <rect id="Rectangle-6-Copy-4" fill="#D8D8D8" opacity="0.493546196" x="30" y="184" width="14.1826691" height="14.1826691" rx="7.09133453"></rect>
                    <rect id="Rectangle-6-Copy-14" fill="#D8D8D8" opacity="0.493546196" x="30" y="345" width="14.1826691" height="14.1826691" rx="7.09133453"></rect>
                    <rect id="Rectangle-6-Copy-6" fill="#D8D8D8" opacity="0.493546196" x="30" y="211" width="14.1826691" height="14.1826691" rx="7.09133453"></rect>
                    <rect id="Rectangle-6-Copy-15" fill="#D8D8D8" opacity="0.493546196" x="30" y="372" width="14.1826691" height="14.1826691" rx="7.09133453"></rect>
                    <rect id="Rectangle-6-Copy-8" fill="#D8D8D8" opacity="0.493546196" x="30" y="236" width="14.1826691" height="14.1826691" rx="7.09133453"></rect>
                    <rect id="Rectangle-6-Copy-16" fill="#D8D8D8" opacity="0.493546196" x="30" y="397" width="14.1826691" height="14.1826691" rx="7.09133453"></rect>
                    <rect id="Rectangle-6-Copy-10" fill="#D8D8D8" opacity="0.493546196" x="30" y="263" width="14.1826691" height="14.1826691" rx="7.09133453"></rect>
                    <rect id="Rectangle-6-Copy-17" fill="#D8D8D8" opacity="0.493546196" x="30" y="424" width="14.1826691" height="14.1826691" rx="7.09133453"></rect>
                    <rect id="Rectangle-6-Copy" fill="#D8D8D8" opacity="0.493546196" x="61" y="130" width="103.146684" height="14.1826691" rx="7.09133453"></rect>
                    <rect id="Rectangle-6-Copy-18" fill="#D8D8D8" opacity="0.493546196" x="61" y="291" width="103.146684" height="14.1826691" rx="7.09133453"></rect>
                    <rect id="Rectangle-6-Copy-3" fill="#D8D8D8" opacity="0.493546196" x="61" y="157" width="103.146684" height="14.1826691" rx="7.09133453"></rect>
                    <rect id="Rectangle-6-Copy-19" fill="#D8D8D8" opacity="0.493546196" x="61" y="318" width="103.146684" height="14.1826691" rx="7.09133453"></rect>
                    <rect id="Rectangle-6-Copy-5" fill="#D8D8D8" opacity="0.493546196" x="61" y="184" width="103.146684" height="14.1826691" rx="7.09133453"></rect>
                    <rect id="Rectangle-6-Copy-20" fill="#D8D8D8" opacity="0.493546196" x="61" y="345" width="103.146684" height="14.1826691" rx="7.09133453"></rect>
                    <rect id="Rectangle-6-Copy-7" fill="#D8D8D8" opacity="0.493546196" x="61" y="211" width="103.146684" height="14.1826691" rx="7.09133453"></rect>
                    <rect id="Rectangle-6-Copy-21" fill="#D8D8D8" opacity="0.493546196" x="61" y="372" width="103.146684" height="14.1826691" rx="7.09133453"></rect>
                    <rect id="Rectangle-6-Copy-9" fill="#D8D8D8" opacity="0.493546196" x="61" y="236" width="103.146684" height="14.1826691" rx="7.09133453"></rect>
                    <rect id="Rectangle-6-Copy-22" fill="#D8D8D8" opacity="0.493546196" x="61" y="397" width="103.146684" height="14.1826691" rx="7.09133453"></rect>
                    <rect id="Rectangle-6-Copy-11" fill="#D8D8D8" opacity="0.493546196" x="61" y="263" width="103.146684" height="14.1826691" rx="7.09133453"></rect>
                    <rect id="Rectangle-6-Copy-23" fill="#D8D8D8" opacity="0.493546196" x="61" y="424" width="103.146684" height="14.1826691" rx="7.09133453"></rect>
                    <rect id="Rectangle-8-Copy-2" fill="#E4EAEF" x="603.176713" y="117.927223" width="104.436018" height="7.34920124" rx="3.67460062"></rect>
                    <rect id="Rectangle-8-Copy-3" fill="#E4EAEF" x="714.290787" y="117.927223" width="7.22026789" height="7.34920124" rx="3.61013394"></rect>
                </g>
            </g>
        </g>
    </g>
</svg>